<svg width="64" height="64" viewBox="0 0 64 64" fill="none" xmlns="http://www.w3.org/2000/svg">
  <!-- Background with subtle gradient -->
  <defs>
    <linearGradient id="bg" x1="0%" y1="0%" x2="100%" y2="100%">
      <stop offset="0%" style="stop-color:#f8fafc;stop-opacity:1" />
      <stop offset="100%" style="stop-color:#e2e8f0;stop-opacity:1" />
    </linearGradient>
  </defs>
  
  <rect width="64" height="64" rx="12" fill="url(#bg)" stroke="#cbd5e1" stroke-width="1"/>
  
  <!-- Main Excel "E" -->
  <g fill="#1e40af">
    <rect x="16" y="16" width="4" height="32"/>
    <rect x="16" y="16" width="20" height="4"/>
    <rect x="16" y="30" width="16" height="4"/>
    <rect x="16" y="44" width="20" height="4"/>
  </g>
  
  <!-- Analytics chart -->
  <g>
    <rect x="40" y="35" width="3" height="13" fill="#059669" rx="1"/>
    <rect x="45" y="28" width="3" height="20" fill="#2563eb" rx="1"/>
    <rect x="50" y="32" width="3" height="16" fill="#7c3aed" rx="1"/>
    <rect x="55" y="25" width="3" height="23" fill="#dc2626" rx="1"/>
  </g>
  
  <!-- Small grid pattern for spreadsheet feel -->
  <g stroke="#cbd5e1" stroke-width="0.5" opacity="0.3">
    <line x1="16" y1="20" x2="36" y2="20"/>
    <line x1="16" y1="24" x2="36" y2="24"/>
    <line x1="16" y1="28" x2="36" y2="28"/>
    <line x1="20" y1="16" x2="20" y2="32"/>
    <line x1="24" y1="16" x2="24" y2="32"/>
    <line x1="28" y1="16" x2="28" y2="32"/>
    <line x1="32" y1="16" x2="32" y2="32"/>
  </g>
</svg>
